<svg
    xmlns="http://www.w3.org/2000/svg"
    viewBox="0 0 500 500"
    id="vector">
    <path
        id="path"
        d="M 499.524 250 C 499.524 387.808 387.808 499.524 250 499.524 C 112.192 499.524 0.476 387.808 0.476 250 C 0.476 112.192 112.192 0.476 250 0.476 C 387.808 0.476 499.524 112.192 499.524 250 Z M 371.551 138.489 C 349.192 128.227 325.224 120.675 300.157 116.342 C 299.698 116.263 299.244 116.47 299.006 116.886 C 295.924 122.368 292.51 129.521 290.119 135.148 C 263.161 131.112 236.336 131.112 209.932 135.148 C 207.541 129.398 204.003 122.368 200.907 116.886 C 200.669 116.485 200.214 116.273 199.755 116.342 C 174.704 120.66 150.735 128.217 128.366 138.489 C 128.168 138.572 128.006 138.71 127.896 138.888 C 82.423 206.824 69.964 273.086 76.075 338.527 C 76.105 338.847 76.282 339.155 76.535 339.353 C 106.536 361.38 135.594 374.758 164.117 383.619 C 164.571 383.763 165.056 383.595 165.348 383.22 C 172.095 374.007 178.108 364.289 183.266 354.074 C 183.566 353.476 183.279 352.764 182.658 352.532 C 173.119 348.911 164.034 344.499 155.295 339.491 C 154.602 339.085 154.549 338.096 155.186 337.622 C 157.024 336.245 158.86 334.813 160.62 333.364 C 160.936 333.102 161.381 333.043 161.752 333.212 C 219.155 359.419 281.295 359.419 338.023 333.212 C 338.399 333.029 338.839 333.087 339.168 333.35 C 340.928 334.797 342.766 336.245 344.618 337.622 C 345.255 338.096 345.21 339.085 344.519 339.491 C 335.786 344.598 326.7 348.911 317.146 352.517 C 316.523 352.754 316.246 353.476 316.554 354.074 C 321.819 364.275 327.832 373.991 334.456 383.205 C 334.732 383.595 335.233 383.763 335.687 383.619 C 364.343 374.758 393.406 361.38 423.407 339.353 C 423.669 339.155 423.838 338.863 423.861 338.542 C 431.178 262.884 411.615 197.167 372.007 138.903 C 371.908 138.71 371.744 138.572 371.551 138.489 Z M 191.837 298.68 C 174.556 298.68 160.313 282.818 160.313 263.328 C 160.313 243.845 174.279 227.978 191.837 227.978 C 209.531 227.978 223.636 243.984 223.359 263.328 C 223.359 282.818 209.393 298.68 191.837 298.68 Z M 308.382 298.68 C 291.102 298.68 276.859 282.818 276.859 263.328 C 276.859 243.845 290.826 227.978 308.382 227.978 C 326.077 227.978 340.182 243.984 339.906 263.328 C 339.906 282.818 326.077 298.68 308.382 298.68 Z"
        fill="#000000"
        stroke="#000000"/>
</svg>
